<svg xmlns="http://www.w3.org/2000/svg" xmlns:xlink="http://www.w3.org/1999/xlink" version="1.1" width="256" height="256" viewBox="0 0 256 256" xml:space="preserve">

<defs>
</defs>
<g style="stroke: none; stroke-width: 0; stroke-dasharray: none; stroke-linecap: butt; stroke-linejoin: miter; stroke-miterlimit: 10; fill: none; fill-rule: nonzero; opacity: 1;" transform="translate(1.4065934065934016 1.4065934065934016) scale(2.81 2.81)" >
	<circle cx="45" cy="45" r="45" style="stroke: none; stroke-width: 1; stroke-dasharray: none; stroke-linecap: butt; stroke-linejoin: miter; stroke-miterlimit: 10; fill: rgb(32,196,203); fill-rule: nonzero; opacity: 1;" transform="  matrix(1 0 0 1 0 0) "/>
	<path d="M 68.613 30.322 H 16.401 c -1.32 0 -2.401 1.08 -2.401 2.401 v 34.509 c 0 1.32 1.08 2.401 2.401 2.401 h 52.213 c 1.32 0 2.401 -1.08 2.401 -2.401 V 32.722 C 71.014 31.402 69.934 30.322 68.613 30.322 z M 22.183 43.728 c -2.643 0 -4.786 -2.143 -4.786 -4.786 c 0 -2.643 2.143 -4.786 4.786 -4.786 c 2.643 0 4.786 2.143 4.786 4.786 C 26.969 41.586 24.826 43.728 22.183 43.728 z M 42.507 64.15 c -7.458 0 -13.503 -6.046 -13.503 -13.503 s 6.046 -13.503 13.503 -13.503 S 56.01 43.189 56.01 50.646 S 49.965 64.15 42.507 64.15 z" style="stroke: none; stroke-width: 1; stroke-dasharray: none; stroke-linecap: butt; stroke-linejoin: miter; stroke-miterlimit: 10; fill: rgb(27,167,173); fill-rule: nonzero; opacity: 1;" transform=" matrix(1 0 0 1 0 0) " stroke-linecap="round" />
	<circle cx="42.511" cy="50.931" r="8.201" style="stroke: none; stroke-width: 1; stroke-dasharray: none; stroke-linecap: butt; stroke-linejoin: miter; stroke-miterlimit: 10; fill: rgb(27,167,173); fill-rule: nonzero; opacity: 1;" transform="  matrix(1 0 0 1 0 0) "/>
	<path d="M 49.888 36.858 H 35.126 c -1.326 0 -2.412 -1.085 -2.412 -2.412 v -8.68 c 0 -1.326 1.085 -2.412 2.412 -2.412 h 14.761 c 1.326 0 2.412 1.085 2.412 2.412 v 8.68 C 52.299 35.772 51.214 36.858 49.888 36.858 z" style="stroke: none; stroke-width: 1; stroke-dasharray: none; stroke-linecap: butt; stroke-linejoin: miter; stroke-miterlimit: 10; fill: rgb(27,167,173); fill-rule: nonzero; opacity: 1;" transform=" matrix(1 0 0 1 0 0) " stroke-linecap="round" />
	<path d="M 52.874 33.872 H 38.112 c -1.326 0 -2.412 -1.085 -2.412 -2.412 v -8.68 c 0 -1.326 1.085 -2.412 2.412 -2.412 h 14.761 c 1.326 0 2.412 1.085 2.412 2.412 v 8.68 C 55.285 32.786 54.2 33.872 52.874 33.872 z" style="stroke: none; stroke-width: 1; stroke-dasharray: none; stroke-linecap: butt; stroke-linejoin: miter; stroke-miterlimit: 10; fill: rgb(255,255,255); fill-rule: nonzero; opacity: 1;" transform=" matrix(1 0 0 1 0 0) " stroke-linecap="round" />
	<path d="M 71.599 27.336 H 19.387 c -1.32 0 -2.401 1.08 -2.401 2.401 v 34.509 c 0 1.32 1.08 2.401 2.401 2.401 h 52.213 c 1.32 0 2.401 -1.08 2.401 -2.401 V 29.736 C 74 28.416 72.92 27.336 71.599 27.336 z M 25.169 40.742 c -2.643 0 -4.786 -2.143 -4.786 -4.786 s 2.143 -4.786 4.786 -4.786 c 2.643 0 4.786 2.143 4.786 4.786 S 27.812 40.742 25.169 40.742 z M 45.493 61.164 c -7.458 0 -13.503 -6.046 -13.503 -13.503 s 6.046 -13.503 13.503 -13.503 s 13.503 6.046 13.503 13.503 S 52.951 61.164 45.493 61.164 z" style="stroke: none; stroke-width: 1; stroke-dasharray: none; stroke-linecap: butt; stroke-linejoin: miter; stroke-miterlimit: 10; fill: rgb(255,255,255); fill-rule: nonzero; opacity: 1;" transform=" matrix(1 0 0 1 0 0) " stroke-linecap="round" />
	<circle cx="45.491" cy="47.951" r="8.201" style="stroke: none; stroke-width: 1; stroke-dasharray: none; stroke-linecap: butt; stroke-linejoin: miter; stroke-miterlimit: 10; fill: rgb(255,255,255); fill-rule: nonzero; opacity: 1;" transform="  matrix(1 0 0 1 0 0) "/>
</g>
</svg>